<?xml version="1.0" encoding="UTF-8"?>
<svg width="400px" height="400px" viewBox="0 0 400 400" version="1.1" xmlns="http://www.w3.org/2000/svg" xmlns:xlink="http://www.w3.org/1999/xlink">
    <!-- Generator: Sketch 64 (93537) - https://sketch.com -->
    <title>avatar-overlay</title>
    <desc>Created with Sketch.</desc>
    <g id="avatar-overlay" stroke="none" stroke-width="1" fill="none" fill-rule="evenodd">
        <path d="M0,-9.73159331e-11 L400,-9.73159331e-11 L400,400 L0,400 L0,-9.73159331e-11 Z M36,-9.73159331e-11 L400,-9.73159331e-11 L365,400 L1,400 L36,-9.73159331e-11 Z" id="Combined-Shape" fill="#FFFFFF"></path>
        <path d="M69.2383662,332.648024 L61.1826915,328 L35.774637,328 L27.7171844,332.648024 L15,354.795672 L15,364.197179 L27.7171843,386.344826 L35.7742814,391 L61.1826915,391 L69.2383662,386.344826 L82,364.197894 L82,354.795314 L69.2383662,332.648024 Z M80,354.77175 L68.2015216,370 L49,358.878271 L49,336.610627 L68.0032226,334 L80,354.77175 Z M60.6367575,389 L36.3642747,389 L29,371.145204 L48.4893865,360 L68,371.145381 L60.6367575,389 Z M35.6937835,329 L60.3070604,329 L66,332.418526 L47.9890513,335 L30,332.418851 L35.6937835,329 Z M28.9801705,334 L48,336.610356 L48,358.878889 L28.7809745,370 L17,354.772769 L28.9801705,334 Z M16,363.579384 L16,357 L27.1335103,371.281631 L34,388 L28.3006587,384.745933 L16,363.579384 Z M68.6856871,384.746291 L63,388 L69.8490045,371.285085 L81,357 L81,363.582797 L68.6856871,384.746291 Z" id="dodeca" fill="#FFFFFF" fill-rule="nonzero" opacity="0.130324591" transform="translate(48.500000, 359.500000) rotate(-180.000000) translate(-48.500000, -359.500000) "></path>
        <path d="M69.2383662,332.648024 L61.1826915,328 L35.774637,328 L27.7171844,332.648024 L15,354.795672 L15,364.197179 L27.7171843,386.344826 L35.7742814,391 L61.1826915,391 L69.2383662,386.344826 L82,364.197894 L82,354.795314 L69.2383662,332.648024 Z M80,354.77175 L68.2015216,370 L49,358.878271 L49,336.610627 L68.0032226,334 L80,354.77175 Z M60.6367575,389 L36.3642747,389 L29,371.145204 L48.4893865,360 L68,371.145381 L60.6367575,389 Z M35.6937835,329 L60.3070604,329 L66,332.418526 L47.9890513,335 L30,332.418851 L35.6937835,329 Z M28.9801705,334 L48,336.610356 L48,358.878889 L28.7809745,370 L17,354.772769 L28.9801705,334 Z M16,363.579384 L16,357 L27.1335103,371.281631 L34,388 L28.3006587,384.745933 L16,363.579384 Z M68.6856871,384.746291 L63,388 L69.8490045,371.285085 L81,357 L81,363.582797 L68.6856871,384.746291 Z" id="dodeca" fill="#FFFFFF" fill-rule="nonzero"></path>
    </g>
</svg>