<?xml version="1.0" encoding="UTF-8"?>
<svg width="512px" height="512px" viewBox="0 0 512 512" version="1.1" xmlns="http://www.w3.org/2000/svg" xmlns:xlink="http://www.w3.org/1999/xlink">
    <!-- Generator: Sketch 63.1 (92452) - https://sketch.com -->
    <title>favicon</title>
    <desc>Created with Sketch.</desc>
    <g id="favicon" stroke="none" stroke-width="1" fill="none" fill-rule="evenodd">
        <rect id="Rectangle" fill="#FFFFFF" x="0" y="0" width="512" height="512" rx="50"></rect>
        <g id="icon" transform="translate(35.000000, 49.500000)" fill-rule="nonzero">
            <path d="M357.811311,30.5441608 L304.667905,0 L137.05059,0 L83.895455,30.5441608 L2.06788404e-13,176.085842 L2.06788404e-13,237.867174 L83.8954545,383.408856 L137.048244,414 L304.667905,414 L357.811311,383.408856 L442,237.871873 L442,176.083493 L357.811311,30.5441608 Z M431.415421,176.980296 L353.078513,277.933775 L225.588527,204.203877 L225.588527,56.5837508 L351.761891,39.2769787 L431.415421,176.980296 Z M300.158551,404.37772 L141.559944,404.37772 L93.4411051,286.265468 L220.786526,212.538214 L348.270646,286.266643 L300.158551,404.37772 Z M139.612283,9.62227986 L302.106212,9.62227986 L339.690322,31.2210208 L220.78418,47.5311493 L102.022601,31.2230766 L139.612283,9.62227986 Z M89.9568974,39.2784471 L215.979832,56.5828699 L215.979832,204.204171 L88.6370504,277.927608 L10.5778345,176.984113 L89.9568974,39.2784471 Z M9.60869565,235.292463 L9.60869565,191.445723 L83.2081138,286.622252 L128.599876,398.037845 L90.9236898,376.35189 L9.60869565,235.292463 Z M350.792459,376.35189 L313.117153,398.039314 L358.500998,286.62695 L432.391304,191.410485 L432.391304,235.287764 L350.792459,376.35189 Z" id="dodeca" fill="#9A859E" transform="translate(221.000000, 207.000000) rotate(-180.000000) translate(-221.000000, -207.000000) "></path>
            <path d="M348.372348,245.357381 C343.080915,245.357381 338.545401,247.629322 335.143766,251.41589 L315.111913,242.706783 C318.513548,232.861705 320.025386,222.637971 320.025386,211.656922 C320.025386,207.870354 319.647427,204.462442 319.269467,201.054531 L326.828657,199.91856 C329.852333,205.598413 335.899685,209.763638 343.080915,209.763638 C353.285821,209.763638 361.22297,201.433188 361.22297,191.58811 C361.22297,181.743032 352.907862,173.412582 343.080915,173.412582 C334.009887,173.412582 326.828657,179.849748 325.316819,188.180198 L317.37967,189.316169 C314.733953,177.956464 309.82048,166.975415 303.773128,157.508994 L328.718454,139.333466 C331.74213,141.22675 335.143766,142.741378 338.923361,142.741378 C349.128267,142.741378 357.065416,134.410927 357.065416,124.565849 C357.065416,114.720772 348.750307,106.390321 338.923361,106.390321 C328.718454,106.390321 320.781305,114.720772 320.781305,124.565849 C320.781305,126.459134 321.159265,128.352418 321.537224,129.867045 L296.591898,148.42123 C290.166586,140.848093 282.229437,134.03227 273.914328,128.731075 L283.363316,110.934203 C284.119235,110.934203 285.253113,111.31286 286.386992,111.31286 C296.591898,111.31286 304.529047,102.98241 304.529047,93.1373317 C304.529047,83.2922539 296.213938,74.9618034 286.386992,74.9618034 C276.182085,74.9618034 268.244936,83.2922539 268.244936,93.1373317 C268.244936,98.0598706 270.134734,102.225096 273.158409,105.633007 L263.709422,123.429879 C256.150232,120.021967 248.213083,117.371369 240.275934,115.856742 L241.409812,106.011664 C249.346962,104.11838 255.394314,96.9239001 255.394314,88.2147928 C255.394314,77.9910581 247.079205,70.0392645 237.252258,70.0392645 C227.425311,70.0392645 219.110203,78.369715 219.110203,88.2147928 C219.110203,95.4092727 223.267757,101.846439 229.693068,104.875694 L228.55919,114.342115 C226.669392,114.342115 224.779595,114.342115 222.889797,114.342115 C217.598365,114.342115 212.306932,114.720772 207.015499,115.478085 L200.212228,85.5641949 C205.503661,82.1562834 208.905296,76.4764308 208.905296,70.0392645 C208.905296,59.8155299 200.590188,51.8637363 190.763241,51.8637363 C180.558335,51.8637363 172.621185,60.1941867 172.621185,70.0392645 C172.621185,79.5056855 179.802416,87.0788223 188.873443,88.2147928 L195.676714,118.128683 C179.046497,123.051222 163.928117,132.517643 152.211373,145.013319 L142.006467,136.304211 C142.762386,134.410927 143.140345,132.138986 143.140345,129.867045 C143.140345,119.64331 134.825236,111.691517 124.99829,111.691517 C115.171343,111.691517 106.856234,120.021967 106.856234,129.867045 C106.856234,139.712123 115.171343,148.042573 124.99829,148.042573 C128.399925,148.042573 131.423601,146.906603 134.447277,145.391975 L144.652183,154.101083 C133.313399,169.626013 126.132168,188.558855 125.376249,209.006324 L110.635829,209.384981 C107.990113,202.569158 101.564801,197.646619 93.6276522,197.646619 C83.422746,197.646619 75.4855967,205.97707 75.4855967,215.822147 C75.4855967,225.667225 83.8007055,233.997676 93.6276522,233.997676 C101.564801,233.997676 108.368072,228.69648 111.013789,221.123343 L125.754209,220.744686 C126.888087,232.104392 129.533804,243.08544 134.447277,253.309175 L127.644006,256.717086 C124.242371,253.687831 120.084816,251.794547 115.171343,251.794547 C104.966437,251.794547 97.0292876,260.124998 97.0292876,269.970075 C97.0292876,280.19381 105.344396,288.145604 115.171343,288.145604 C124.99829,288.145604 133.313399,279.815153 133.313399,269.970075 C133.313399,268.834105 133.313399,268.076791 132.935439,267.319478 L139.73871,263.911566 C143.518305,269.970075 147.675859,275.271271 152.589332,280.19381 L147.2979,285.873663 C145.030143,284.737692 142.762386,284.359035 140.116669,284.359035 C129.911763,284.359035 121.974614,292.689486 121.974614,302.534564 C121.974614,312.758298 130.289723,320.710092 140.116669,320.710092 C149.943616,320.710092 158.258725,312.379641 158.258725,302.534564 C158.258725,299.505309 157.502806,296.476054 155.990968,293.825456 L161.282401,288.145604 C168.085672,293.825456 175.644861,298.369338 183.582011,301.77725 L174.888942,324.875317 C174.888942,324.875317 174.510983,324.875317 174.510983,324.875317 C164.306077,324.875317 156.368927,333.205768 156.368927,343.050845 C156.368927,353.27458 164.684036,361.226374 174.510983,361.226374 C184.33793,361.226374 192.653038,352.895923 192.653038,343.050845 C192.653038,337.370993 190.007322,332.448454 185.849768,329.040542 L194.542836,305.942475 C203.613864,308.593073 213.062851,310.1077 223.267757,310.1077 C228.18123,310.1077 233.472663,309.729044 238.386136,308.97173 L239.520015,313.894269 C234.228582,316.923523 230.826947,322.982033 230.826947,329.419199 C230.826947,339.642934 239.142055,347.594727 248.969002,347.594727 C258.795949,347.594727 267.111058,339.264277 267.111058,329.419199 C267.111058,319.952778 259.929827,312.379641 251.236759,311.243671 L250.102881,305.942475 C258.795949,303.670534 267.111058,299.883966 274.292288,295.340084 L280.717599,307.457103 C278.449842,310.486357 276.938004,314.272926 276.938004,318.816808 C276.938004,329.040542 285.253113,336.992336 295.08006,336.992336 C305.284966,336.992336 313.222115,328.661885 313.222115,318.816808 C313.222115,308.97173 304.907007,300.641279 295.08006,300.641279 C293.568222,300.641279 292.056384,301.019936 290.922505,301.019936 L282.607397,288.524261 C294.324141,279.05784 303.773128,267.319478 310.576399,253.687831 L330.230292,262.396939 C330.230292,262.775596 330.230292,263.154252 330.230292,263.911566 C330.230292,274.135301 338.545401,282.087094 348.372348,282.087094 C358.577254,282.087094 366.514403,273.756644 366.514403,263.911566 C366.514403,253.687831 358.577254,245.357381 348.372348,245.357381 Z" id="virus" fill="#AB24FF"></path>
            <path d="M357.811311,30.5441608 L304.667905,2.06885059e-13 L137.05059,2.06885059e-13 L83.895455,30.5441608 L0,176.085842 L0,237.867174 L83.8954545,383.408856 L137.048244,414 L304.667905,414 L357.811311,383.408856 L442,237.871873 L442,176.083493 L357.811311,30.5441608 Z M431.415421,176.980296 L353.078513,277.933775 L225.588527,204.203877 L225.588527,56.5837508 L351.761891,39.2769787 L431.415421,176.980296 Z M300.158551,404.37772 L141.559944,404.37772 L93.4411051,286.265468 L220.786526,212.538214 L348.270646,286.266643 L300.158551,404.37772 Z M139.612283,9.62227986 L302.106212,9.62227986 L339.690322,31.2210208 L220.78418,47.5311493 L102.022601,31.2230766 L139.612283,9.62227986 Z M89.9568974,39.2784471 L215.979832,56.5828699 L215.979832,204.204171 L88.6370504,277.927608 L10.5778345,176.984113 L89.9568974,39.2784471 Z M9.60869565,235.292463 L9.60869565,191.445723 L83.2081138,286.622252 L128.599876,398.037845 L90.9236898,376.35189 L9.60869565,235.292463 Z M350.792459,376.35189 L313.117153,398.039314 L358.500998,286.62695 L432.391304,191.410485 L432.391304,235.287764 L350.792459,376.35189 Z" id="dodeca" fill="#4A0059"></path>
        </g>
    </g>
</svg>