<?xml version="1.0" encoding="UTF-8"?>
<svg width="512px" height="512px" viewBox="0 0 512 512" version="1.1" xmlns="http://www.w3.org/2000/svg" xmlns:xlink="http://www.w3.org/1999/xlink">
    <!-- Generator: Sketch 63.1 (92452) - https://sketch.com -->
    <title>favicon</title>
    <desc>Created with Sketch.</desc>
    <g id="favicon" stroke="none" stroke-width="1" fill="none" fill-rule="evenodd">
        <rect id="Rectangle" fill="#FFFFFF" x="0" y="0" width="512" height="512" rx="50"></rect>
        <path d="M392.811311,80.0441608 L339.667905,49.5 L172.05059,49.5 L118.895455,80.0441608 L35,225.585842 L35,287.367174 L118.895455,432.908856 L172.048244,463.5 L339.667905,463.5 L392.811311,432.908856 L477,287.371873 L477,225.583493 L392.811311,80.0441608 Z M466.415421,226.480296 L388.078513,327.433775 L260.588527,253.703877 L260.588527,106.083751 L386.761891,88.7769787 L466.415421,226.480296 Z M335.158551,453.87772 L176.559944,453.87772 L128.441105,335.765468 L255.786526,262.038214 L383.270646,335.766643 L335.158551,453.87772 Z M174.612283,59.1222799 L337.106212,59.1222799 L374.690322,80.7210208 L255.78418,97.0311493 L137.022601,80.7230766 L174.612283,59.1222799 Z M124.956897,88.7784471 L250.979832,106.08287 L250.979832,253.704171 L123.63705,327.427608 L45.5778345,226.484113 L124.956897,88.7784471 Z M44.6086957,284.792463 L44.6086957,240.945723 L118.208114,336.122252 L163.599876,447.537845 L125.92369,425.85189 L44.6086957,284.792463 Z M385.792459,425.85189 L348.117153,447.539314 L393.500998,336.12695 L467.391304,240.910485 L467.391304,284.787764 L385.792459,425.85189 Z" id="dodeca" stroke="#4B005A" stroke-width="14" fill="#4A0059" fill-rule="nonzero"></path>
    </g>
</svg>