<?xml version="1.0" encoding="UTF-8"?>
<svg width="1109px" height="512px" viewBox="0 0 1109 512" version="1.1" xmlns="http://www.w3.org/2000/svg" xmlns:xlink="http://www.w3.org/1999/xlink">
    <!-- Generator: Sketch 63.1 (92452) - https://sketch.com -->
    <title>logo-nerds-against-corona</title>
    <desc>Created with Sketch.</desc>
    <g id="logo-nerds-against-corona" stroke="none" stroke-width="1" fill="none" fill-rule="evenodd">
        <text id="Nerds-Against-Corona" font-family="BirdmanLight, Birdman" font-size="140" font-weight="300" fill="#21183C">
            <tspan x="475" y="147">Nerds</tspan>
            <tspan x="475" y="293">Against</tspan>
            <tspan x="475" y="439">Corona</tspan>
        </text>
        <g id="icon" transform="translate(35.000000, 96.000000)" fill-rule="nonzero">
            <path d="M276.858526,23.6827913 L235.738515,0 L106.043669,0 L64.9145828,23.6827913 L1.60003698e-13,136.530327 L1.60003698e-13,184.433244 L64.9145825,297.280779 L106.041854,321 L235.738515,321 L276.858526,297.280779 L342,184.436887 L342,136.528505 L276.858526,23.6827913 Z M333.810122,137.223852 L273.196496,215.499376 L174.550399,158.331992 L174.550399,43.8729082 L272.177753,30.4538893 L333.810122,137.223852 Z M232.249376,313.539247 L109.532808,313.539247 L72.3005836,221.959457 L170.834823,164.794123 L269.476382,221.960368 L232.249376,313.539247 Z M108.025794,7.46075322 L233.75639,7.46075322 L262.837308,24.2076031 L170.833008,36.8538622 L78.9405649,24.2091971 L108.025794,7.46075322 Z M69.6046582,30.4550278 L167.115617,43.8722252 L167.115617,158.332219 L68.5834191,215.494594 L8.18465924,137.226812 L69.6046582,30.4550278 Z M7.43478261,182.43691 L7.43478261,148.4398 L64.3827487,222.236094 L99.5048814,308.623547 L70.3527193,291.809074 L7.43478261,182.43691 Z M271.427649,291.809074 L242.276168,308.624685 L277.392175,222.239737 L334.565217,148.412478 L334.565217,182.433267 L271.427649,291.809074 Z" id="dodeca" fill="#9A859E" transform="translate(171.000000, 160.500000) rotate(-180.000000) translate(-171.000000, -160.500000) "></path>
            <path d="M269.555075,190.240868 C265.460798,190.240868 261.951419,192.002445 259.319384,194.938408 L243.819625,188.185694 C246.451659,180.552192 247.621453,172.625093 247.621453,164.110802 C247.621453,161.17484 247.329004,158.532473 247.036556,155.890107 L252.885522,155.009318 C255.225108,159.413262 259.904281,162.642821 265.460798,162.642821 C273.356902,162.642821 279.498316,156.183703 279.498316,148.550201 C279.498316,140.916699 273.064454,134.457581 265.460798,134.457581 C258.442039,134.457581 252.885522,139.448718 251.715729,145.907835 L245.574315,146.788624 C243.527177,137.980736 239.725349,129.466445 235.046176,122.126539 L254.347763,108.033919 C256.68735,109.501901 259.319384,110.676286 262.243867,110.676286 C270.139971,110.676286 276.281385,104.217168 276.281385,96.5836658 C276.281385,88.9501634 269.847523,82.491046 262.243867,82.491046 C254.347763,82.491046 248.206349,88.9501634 248.206349,96.5836658 C248.206349,98.051647 248.498797,99.5196282 248.791246,100.694013 L229.489658,115.080229 C224.518038,109.208304 218.376623,103.923572 211.942761,99.8132245 L219.253968,86.014201 C219.838865,86.014201 220.71621,86.3077972 221.593555,86.3077972 C229.489658,86.3077972 235.631073,79.8486798 235.631073,72.2151775 C235.631073,64.5816751 229.19721,58.1225577 221.593555,58.1225577 C213.697451,58.1225577 207.556037,64.5816751 207.556037,72.2151775 C207.556037,76.0319287 209.018278,79.2614873 211.357864,81.9038536 L204.046657,95.702877 C198.197691,93.0605108 192.056277,91.0053371 185.914863,89.8309522 L186.792208,82.1974498 C192.933622,80.7294686 197.612795,75.1511399 197.612795,68.3984263 C197.612795,60.4713277 191.178932,54.3058066 183.575277,54.3058066 C175.971621,54.3058066 169.537759,60.7649239 169.537759,68.3984263 C169.537759,73.9767549 172.75469,78.9678911 177.726311,81.3166611 L176.848966,88.6565672 C175.386724,88.6565672 173.924483,88.6565672 172.462241,88.6565672 C168.367965,88.6565672 164.273689,88.9501634 160.179413,89.5373559 L154.915344,66.3432526 C159.00962,63.7008864 161.641655,59.2969427 161.641655,54.3058066 C161.641655,46.378708 155.207792,40.2131868 147.604137,40.2131868 C139.708033,40.2131868 133.566619,46.6723042 133.566619,54.3058066 C133.566619,61.6457127 139.123136,67.5176376 146.141895,68.3984263 L151.405964,91.5925296 C138.53824,95.4092808 126.840308,102.749187 117.774411,112.437863 L109.878307,105.685149 C110.463203,104.217168 110.755652,102.455591 110.755652,100.694013 C110.755652,92.7669146 104.321789,86.6013935 96.7181337,86.6013935 C89.1144781,86.6013935 82.6806157,93.0605108 82.6806157,100.694013 C82.6806157,108.327516 89.1144781,114.786633 96.7181337,114.786633 C99.3501684,114.786633 101.689755,113.905844 104.029341,112.731459 L111.925445,119.484173 C103.151996,131.521619 97.5954786,146.201431 97.010582,162.055628 L85.6050986,162.349225 C83.5579606,157.064492 78.5863396,153.247741 72.4449254,153.247741 C64.5488215,153.247741 58.4074074,159.706858 58.4074074,167.340361 C58.4074074,174.973863 64.8412698,181.43298 72.4449254,181.43298 C78.5863396,181.43298 83.8504089,177.322633 85.8975469,171.450708 L97.3030303,171.157112 C98.1803752,179.964999 100.227513,188.47929 104.029341,196.406389 L98.7652718,199.048755 C96.1332371,196.699985 92.9163059,195.232004 89.1144781,195.232004 C81.2183742,195.232004 75.0769601,201.691121 75.0769601,209.324624 C75.0769601,217.251722 81.5108225,223.417243 89.1144781,223.417243 C96.7181337,223.417243 103.151996,216.958126 103.151996,209.324624 C103.151996,208.443835 103.151996,207.856643 102.859548,207.26945 L108.123617,204.627084 C111.0481,209.324624 114.265031,213.434971 118.066859,217.251722 L113.972583,221.655666 C112.217893,220.774877 110.463203,220.481281 108.416065,220.481281 C100.519962,220.481281 94.3785474,226.940398 94.3785474,234.573901 C94.3785474,242.500999 100.81241,248.666521 108.416065,248.666521 C116.019721,248.666521 122.453583,242.207403 122.453583,234.573901 C122.453583,232.225131 121.868687,229.876361 120.698894,227.821187 L124.79317,223.417243 C130.057239,227.821187 135.906205,231.344342 142.047619,233.986708 L135.321308,251.896079 C135.321308,251.896079 135.02886,251.896079 135.02886,251.896079 C127.132756,251.896079 120.991342,258.355197 120.991342,265.988699 C120.991342,273.915798 127.425204,280.081319 135.02886,280.081319 C142.632516,280.081319 149.066378,273.622201 149.066378,265.988699 C149.066378,261.584755 147.01924,257.768004 143.802309,255.125638 L150.52862,237.216267 C157.547379,239.271441 164.858586,240.445826 172.75469,240.445826 C176.556518,240.445826 180.650794,240.152229 184.452621,239.565037 L185.329966,243.381788 C181.23569,245.730558 178.603656,250.428098 178.603656,255.419234 C178.603656,263.346333 185.037518,269.511854 192.641174,269.511854 C200.244829,269.511854 206.678692,263.052736 206.678692,255.419234 C206.678692,248.079328 201.122174,242.207403 194.395863,241.326614 L193.518519,237.216267 C200.244829,235.454689 206.678692,232.518727 212.235209,228.995572 L217.20683,238.390652 C215.45214,240.739422 214.282347,243.675384 214.282347,247.198539 C214.282347,255.125638 220.71621,261.291159 228.319865,261.291159 C236.215969,261.291159 242.357383,254.832042 242.357383,247.198539 C242.357383,239.565037 235.923521,233.10592 228.319865,233.10592 C227.150072,233.10592 225.980279,233.399516 225.102934,233.399516 L218.669072,223.71084 C227.734969,216.370934 235.046176,207.26945 240.310245,196.699985 L255.517557,203.452699 C255.517557,203.746295 255.517557,204.039891 255.517557,204.627084 C255.517557,212.554182 261.951419,218.719704 269.555075,218.719704 C277.451178,218.719704 283.592593,212.260586 283.592593,204.627084 C283.592593,196.699985 277.451178,190.240868 269.555075,190.240868 Z" id="virus" fill="#AB24FF"></path>
            <path d="M276.858526,23.6827913 L235.738515,1.60410879e-13 L106.043669,1.60410879e-13 L64.9145828,23.6827913 L0,136.530327 L0,184.433244 L64.9145825,297.280779 L106.041854,321 L235.738515,321 L276.858526,297.280779 L342,184.436887 L342,136.528505 L276.858526,23.6827913 Z M333.810122,137.223852 L273.196496,215.499376 L174.550399,158.331992 L174.550399,43.8729082 L272.177753,30.4538893 L333.810122,137.223852 Z M232.249376,313.539247 L109.532808,313.539247 L72.3005836,221.959457 L170.834823,164.794123 L269.476382,221.960368 L232.249376,313.539247 Z M108.025794,7.46075322 L233.75639,7.46075322 L262.837308,24.2076031 L170.833008,36.8538622 L78.9405649,24.2091971 L108.025794,7.46075322 Z M69.6046582,30.4550278 L167.115617,43.8722252 L167.115617,158.332219 L68.5834191,215.494594 L8.18465924,137.226812 L69.6046582,30.4550278 Z M7.43478261,182.43691 L7.43478261,148.4398 L64.3827487,222.236094 L99.5048814,308.623547 L70.3527193,291.809074 L7.43478261,182.43691 Z M271.427649,291.809074 L242.276168,308.624685 L277.392175,222.239737 L334.565217,148.412478 L334.565217,182.433267 L271.427649,291.809074 Z" id="dodeca" fill="#4A0059"></path>
        </g>
    </g>
</svg>