<?xml version="1.0" encoding="UTF-8"?>
<svg width="1109px" height="512px" viewBox="0 0 1109 512" version="1.1" xmlns="http://www.w3.org/2000/svg" xmlns:xlink="http://www.w3.org/1999/xlink">
    <!-- Generator: Sketch 63.1 (92452) - https://sketch.com -->
    <title>logo-nerds-against-corona</title>
    <desc>Created with Sketch.</desc>
    <g id="logo-nerds-against-corona" stroke="none" stroke-width="1" fill="none" fill-rule="evenodd">
        <path d="M483.458693,145.273736 L483.458693,93.48582 C483.458693,88.4221126 485.300041,84.1639951 488.982737,80.7114673 C492.665434,77.2589396 497.038635,75.5326757 502.102343,75.5326757 L502.102343,75.5326757 L540.598027,75.5326757 C545.661734,75.5326757 550.034936,77.2589396 553.717633,80.7114673 C557.400329,84.1639951 559.241677,88.4221126 559.241677,93.48582 L559.241677,93.48582 L559.241677,145.273736 L567.355117,145.273736 L567.355117,94.6942047 C567.355117,87.0986436 564.794492,80.7114673 559.673243,75.5326757 C554.551993,70.3538841 548.193588,67.7644883 540.598027,67.7644883 L540.598027,67.7644883 L502.102343,67.7644883 C494.506782,67.7644883 488.148376,70.1812577 483.027127,75.0147965 C477.905878,79.8483354 475.345253,86.0053432 475.345253,93.48582 L475.345253,93.48582 L475.345253,145.273736 L483.458693,145.273736 Z M664.889026,145.446363 L664.889026,137.678175 L606.541307,137.678175 C601.247431,137.678175 596.931771,135.779285 593.594328,131.981504 C590.256885,128.183724 588.588163,123.637896 588.588163,118.34402 L588.588163,118.34402 L588.588163,92.7953144 C588.588163,87.5014386 590.199342,83.1282367 593.421702,79.675709 C596.644061,76.2231813 600.844636,74.4393753 606.023428,74.324291 L606.023428,74.324291 L646.590629,73.8064118 C652.114673,73.6913276 656.602959,75.3600493 660.055487,78.8125771 C663.508015,82.2651048 665.234279,86.7533909 665.234279,92.2774353 C665.234279,98.2618167 663.594328,103.095356 660.314427,106.778052 C657.034525,110.460748 652.459926,112.302096 646.590629,112.302096 L646.590629,112.302096 L620.178792,112.302096 L620.178792,120.070284 L646.590629,120.070284 C654.301274,120.070284 660.68845,117.682285 665.752158,112.906289 C670.815865,108.130292 673.347719,101.944513 673.347719,94.3489519 C673.347719,86.0628853 671.161118,79.4455405 666.787916,74.4969174 C662.069462,69.2030415 655.624743,66.5561036 647.453761,66.5561036 L647.453761,66.5561036 L606.196054,66.5561036 C598.370325,66.5561036 592.098233,68.8865598 587.379778,73.5474723 C582.661323,78.2083847 580.302096,84.4517057 580.302096,92.2774353 L580.302096,92.2774353 L580.302096,119.207152 C580.302096,126.917797 582.718866,133.21866 587.552404,138.109741 C592.385943,143.000822 598.715577,145.446363 606.541307,145.446363 L606.541307,145.446363 L664.889026,145.446363 Z M692.336621,145.446363 L692.336621,93.6584464 C692.336621,88.4796547 694.062885,83.9625976 697.515413,80.107275 C700.967941,76.2519523 705.2836,74.324291 710.462392,74.324291 L710.462392,74.324291 L763.458693,74.324291 L763.458693,66.5561036 L710.462392,66.5561036 C702.866831,66.5561036 696.565968,69.0304151 691.559803,73.9790382 C686.553637,78.9276613 684.050555,85.1997534 684.050555,92.7953144 L684.050555,92.7953144 L684.223181,145.446363 L692.336621,145.446363 Z M832.509248,145.273736 C840.104809,145.273736 846.463214,142.68434 851.584464,137.505549 C856.705713,132.326757 859.266338,125.939581 859.266338,118.34402 L859.266338,118.34402 L859.266338,39.7990136 L851.152898,39.7990136 L851.152898,119.552404 C851.152898,124.616112 849.31155,128.874229 845.628853,132.326757 C841.946157,135.779285 837.572955,137.505549 832.509248,137.505549 L832.509248,137.505549 L794.013564,137.505549 C788.719688,137.505549 784.46157,135.779285 781.239211,132.326757 C778.016852,128.874229 776.405672,124.501028 776.405672,119.207152 L776.405672,119.207152 L776.405672,94.6942047 C776.405672,89.4003288 778.074394,84.8545006 781.411837,81.0567201 C784.749281,77.2589396 789.06494,75.3600493 794.358816,75.3600493 L794.358816,75.3600493 L835.961776,75.3600493 L836.134402,67.7644883 L794.358816,67.5918619 C786.533087,67.5918619 780.203453,70.0374024 775.369914,74.9284834 C770.536375,79.8195643 768.119605,86.1779696 768.119605,94.0036991 L768.119605,94.0036991 L768.119605,120.760789 C768.119605,128.241266 770.536375,134.196876 775.369914,138.62762 C780.203453,143.058364 786.418002,145.273736 794.013564,145.273736 L794.013564,145.273736 L832.509248,145.273736 Z M931.251541,145.10111 C937.581176,145.10111 942.529799,142.799425 946.097411,138.196054 C949.31977,134.053021 950.930949,128.701603 950.930949,122.1418 C950.930949,116.272503 949.118372,111.295109 945.493218,107.209618 C941.868064,103.124127 937.120838,101.081381 931.251541,101.081381 L931.251541,101.081381 L889.821208,100.908755 C881.880395,100.908755 877.909988,96.3629264 877.909988,87.27127 C877.909988,78.5248664 882.340732,74.1516646 891.202219,74.1516646 L891.202219,74.1516646 L947.305795,74.324291 L947.305795,66.5561036 L888.440197,66.5561036 C882.5709,66.5561036 877.823674,68.6276202 874.19852,72.7706535 C870.573366,76.9136868 868.760789,81.919852 868.760789,87.7891492 C868.760789,93.6584464 870.573366,98.6358405 874.19852,102.721332 C877.823674,106.806823 882.5709,108.849568 888.440197,108.849568 L888.440197,108.849568 L929.697904,109.022195 C937.753802,109.022195 941.781751,113.568023 941.781751,122.659679 C941.781751,132.556926 937.351007,137.505549 928.489519,137.505549 L928.489519,137.505549 L872.385943,137.332922 L872.385943,145.10111 L931.251541,145.10111 Z M568.045623,291.446363 L568.218249,238.795314 C568.218249,231.199753 565.743938,224.927661 560.795314,219.979038 C555.846691,215.030415 549.574599,212.556104 541.979038,212.556104 L541.979038,212.556104 L489.32799,212.556104 L489.32799,220.324291 L541.979038,220.324291 C546.467324,220.324291 550.293876,221.734073 553.458693,224.553637 C556.62351,227.373202 558.78134,231.602548 559.932182,237.241677 L559.932182,237.241677 L502.102343,237.241677 C494.506782,237.241677 488.148376,239.658446 483.027127,244.491985 C477.905878,249.325524 475.345253,255.482532 475.345253,262.963009 C475.345253,271.364159 477.70448,278.096589 482.422935,283.160296 C487.256473,288.569256 493.816276,291.273736 502.102343,291.273736 L502.102343,291.273736 L540.252774,291.273736 L540.252774,283.505549 L502.102343,283.505549 C497.038635,283.505549 492.665434,281.692972 488.982737,278.067818 C485.300041,274.442663 483.458693,270.098233 483.458693,265.034525 C483.458693,259.165228 485.098644,254.36046 488.378545,250.620222 C491.658446,246.879984 496.233046,245.009864 502.102343,245.009864 L502.102343,245.009864 L559.932182,245.009864 L559.932182,291.446363 L568.045623,291.446363 Z M645.554871,320.792848 C653.150432,320.792848 659.364982,318.318537 664.19852,313.369914 C669.032059,308.421291 671.563913,302.149199 671.794081,294.553637 C672.129028,282.830502 672.301501,265.583246 672.311961,242.811868 L672.311961,240.694205 C672.311961,232.983559 669.780107,226.567612 664.7164,221.446363 C659.652692,216.325113 653.265516,213.764488 645.554871,213.764488 L645.554871,213.764488 L607.059186,213.764488 C599.463625,213.764488 593.249075,215.97986 588.415536,220.410604 C583.581998,224.841348 581.165228,230.796958 581.165228,238.277435 L581.165228,238.277435 L581.165228,265.207152 C581.165228,272.917797 583.581998,279.21866 588.415536,284.109741 C593.249075,289.000822 599.578709,291.446363 607.404439,291.446363 L607.404439,291.446363 L644.864365,291.273736 L644.691739,283.678175 L607.404439,283.678175 C602.225647,283.678175 597.938759,281.779285 594.543773,277.981504 C591.148788,274.183724 589.451295,269.637896 589.451295,264.34402 L589.451295,264.34402 L589.451295,240.003699 C589.451295,234.709823 591.062474,230.30785 594.284834,226.797781 C597.507193,223.287711 601.76531,221.532676 607.059186,221.532676 L607.059186,221.532676 L645.554871,221.532676 C650.963831,221.532676 655.452117,223.172626 659.019729,226.452528 C662.587341,229.732429 664.313605,234.07686 664.19852,239.48582 L664.19852,239.48582 L663.508015,293.690506 C663.392931,298.869297 661.724209,303.357583 658.50185,307.155364 C654.934238,311.068229 650.618578,313.024661 645.554871,313.024661 L645.554871,313.024661 L592.903822,313.024661 L592.903822,320.792848 L645.554871,320.792848 Z M775.024661,291.446363 L775.197287,238.795314 C775.197287,231.199753 772.722976,224.927661 767.774353,219.979038 C762.82573,215.030415 756.553637,212.556104 748.958076,212.556104 L748.958076,212.556104 L696.307028,212.556104 L696.307028,220.324291 L748.958076,220.324291 C753.446363,220.324291 757.272914,221.734073 760.437731,224.553637 C763.602548,227.373202 765.760378,231.602548 766.911221,237.241677 L766.911221,237.241677 L709.081381,237.241677 C701.48582,237.241677 695.127415,239.658446 690.006165,244.491985 C684.884916,249.325524 682.324291,255.482532 682.324291,262.963009 C682.324291,271.364159 684.683518,278.096589 689.401973,283.160296 C694.235512,288.569256 700.795314,291.273736 709.081381,291.273736 L709.081381,291.273736 L747.231813,291.273736 L747.231813,283.505549 L709.081381,283.505549 C704.017674,283.505549 699.644472,281.692972 695.961776,278.067818 C692.279079,274.442663 690.437731,270.098233 690.437731,265.034525 C690.437731,259.165228 692.077682,254.36046 695.357583,250.620222 C698.637485,246.879984 703.212084,245.009864 709.081381,245.009864 L709.081381,245.009864 L766.911221,245.009864 L766.911221,291.446363 L775.024661,291.446363 Z M798.156597,198.573366 L798.156597,191.150432 L788.662145,191.150432 L788.662145,198.573366 L798.156597,198.573366 Z M798.156597,291.273736 L798.156597,214.800247 L788.662145,214.800247 L788.662145,291.273736 L798.156597,291.273736 Z M827.15783,291.273736 L827.15783,239.48582 C827.15783,234.422113 828.999178,230.163995 832.681874,226.711467 C836.36457,223.25894 840.737772,221.532676 845.80148,221.532676 L845.80148,221.532676 L884.297164,221.532676 C889.360871,221.532676 893.734073,223.25894 897.416769,226.711467 C901.099466,230.163995 902.940814,234.422113 902.940814,239.48582 L902.940814,239.48582 L902.940814,291.273736 L911.054254,291.273736 L911.054254,240.694205 C911.054254,233.098644 908.493629,226.711467 903.37238,221.532676 C898.25113,216.353884 891.892725,213.764488 884.297164,213.764488 L884.297164,213.764488 L845.80148,213.764488 C838.205919,213.764488 831.847513,216.181258 826.726264,221.014797 C821.605014,225.848335 819.04439,232.005343 819.04439,239.48582 L819.04439,239.48582 L819.04439,291.273736 L827.15783,291.273736 Z M980.277435,291.10111 C986.607069,291.10111 991.555693,288.799425 995.123305,284.196054 C998.345664,280.053021 999.956843,274.701603 999.956843,268.1418 C999.956843,262.272503 998.144266,257.295109 994.519112,253.209618 C990.893958,249.124127 986.146732,247.081381 980.277435,247.081381 L980.277435,247.081381 L938.847102,246.908755 C930.906289,246.908755 926.935882,242.362926 926.935882,233.27127 C926.935882,224.524866 931.366626,220.151665 940.228113,220.151665 L940.228113,220.151665 L996.331689,220.324291 L996.331689,212.556104 L937.466091,212.556104 C931.596794,212.556104 926.849568,214.62762 923.224414,218.770654 C919.59926,222.913687 917.786683,227.919852 917.786683,233.789149 C917.786683,239.658446 919.59926,244.635841 923.224414,248.721332 C926.849568,252.806823 931.596794,254.849568 937.466091,254.849568 L937.466091,254.849568 L978.723798,255.022195 C986.779696,255.022195 990.807645,259.568023 990.807645,268.659679 C990.807645,278.556926 986.376901,283.505549 977.515413,283.505549 L977.515413,283.505549 L921.411837,283.332922 L921.411837,291.10111 L980.277435,291.10111 Z M1046.91122,291.446363 L1046.91122,283.678175 L1037.24414,283.678175 C1031.83518,283.678175 1027.31813,281.808056 1023.69297,278.067818 C1020.06782,274.327579 1018.25524,269.75298 1018.25524,264.34402 L1018.25524,264.34402 L1018.25524,221.187423 L1046.39334,221.187423 L1046.39334,213.591862 L1018.25524,213.419236 L1018.25524,184.590629 L1009.62392,184.590629 L1009.45129,265.207152 C1009.45129,273.032881 1012.127,279.362515 1017.47842,284.196054 C1022.82984,289.029593 1029.41841,291.446363 1037.24414,291.446363 L1037.24414,291.446363 L1046.91122,291.446363 Z M560.967941,437.446363 L560.967941,429.678175 L502.274969,429.678175 C497.096178,429.678175 492.809289,427.779285 489.414303,423.981504 C486.019318,420.183724 484.321825,415.637896 484.321825,410.34402 L484.321825,410.34402 L484.321825,386.003699 C484.321825,380.709823 486.019318,376.135224 489.414303,372.279901 C492.809289,368.424579 497.096178,366.496917 502.274969,366.496917 L502.274969,366.496917 L560.967941,366.496917 L560.967941,358.901356 L502.274969,358.901356 C494.564324,358.901356 488.263461,361.231813 483.37238,365.892725 C478.481299,370.553637 476.035758,376.681874 476.035758,384.277435 L476.035758,384.277435 L476.035758,411.207152 C476.035758,419.032881 478.481299,425.362515 483.37238,430.196054 C488.263461,435.029593 494.564324,437.446363 502.274969,437.446363 L502.274969,437.446363 L560.967941,437.446363 Z M628.119605,437.446363 C635.600082,437.446363 641.728319,434.94328 646.504316,429.937115 C651.280312,424.930949 653.668311,418.687628 653.668311,411.207152 L653.668311,411.207152 L653.668311,384.277435 C653.668311,376.796958 651.193999,370.697493 646.245376,365.979038 C641.296753,361.260584 635.024661,358.901356 627.4291,358.901356 L627.4291,358.901356 L587.897657,358.901356 C580.187012,358.901356 573.886149,361.231813 568.995068,365.892725 C564.103987,370.553637 561.658446,376.681874 561.658446,384.277435 L561.658446,384.277435 L561.658446,411.207152 C561.658446,418.802713 564.132758,425.074805 569.081381,430.023428 C574.030004,434.972051 580.302096,437.446363 587.897657,437.446363 L587.897657,437.446363 L628.119605,437.446363 Z M627.4291,429.678175 L587.897657,429.678175 C582.603781,429.678175 578.288122,427.779285 574.950678,423.981504 C571.613235,420.183724 569.944513,415.637896 569.944513,410.34402 L569.944513,410.34402 L569.944513,386.003699 C569.944513,380.709823 571.613235,376.135224 574.950678,372.279901 C578.288122,368.424579 582.603781,366.496917 587.897657,366.496917 L587.897657,366.496917 L627.4291,366.496917 C632.722976,366.496917 637.038635,368.424579 640.376079,372.279901 C643.713522,376.135224 645.382244,380.709823 645.382244,386.003699 L645.382244,386.003699 L645.382244,410.34402 C645.382244,415.637896 643.713522,420.183724 640.376079,423.981504 C637.038635,427.779285 632.722976,429.678175 627.4291,429.678175 L627.4291,429.678175 Z M674.901356,437.446363 L674.901356,385.658446 C674.901356,380.479655 676.62762,375.962598 680.080148,372.107275 C683.532676,368.251952 687.848335,366.324291 693.027127,366.324291 L693.027127,366.324291 L746.023428,366.324291 L746.023428,358.556104 L693.027127,358.556104 C685.431566,358.556104 679.130703,361.030415 674.124538,365.979038 C669.118372,370.927661 666.61529,377.199753 666.61529,384.795314 L666.61529,384.795314 L666.787916,437.446363 L674.901356,437.446363 Z M810.930949,437.446363 C818.411426,437.446363 824.539663,434.94328 829.31566,429.937115 C834.091656,424.930949 836.479655,418.687628 836.479655,411.207152 L836.479655,411.207152 L836.479655,384.277435 C836.479655,376.796958 834.005343,370.697493 829.05672,365.979038 C824.108097,361.260584 817.836005,358.901356 810.240444,358.901356 L810.240444,358.901356 L770.709001,358.901356 C762.998356,358.901356 756.697493,361.231813 751.806412,365.892725 C746.915331,370.553637 744.46979,376.681874 744.46979,384.277435 L744.46979,384.277435 L744.46979,411.207152 C744.46979,418.802713 746.944102,425.074805 751.892725,430.023428 C756.841348,434.972051 763.11344,437.446363 770.709001,437.446363 L770.709001,437.446363 L810.930949,437.446363 Z M810.240444,429.678175 L770.709001,429.678175 C765.415125,429.678175 761.099466,427.779285 757.762022,423.981504 C754.424579,420.183724 752.755857,415.637896 752.755857,410.34402 L752.755857,410.34402 L752.755857,386.003699 C752.755857,380.709823 754.424579,376.135224 757.762022,372.279901 C761.099466,368.424579 765.415125,366.496917 770.709001,366.496917 L770.709001,366.496917 L810.240444,366.496917 C815.53432,366.496917 819.849979,368.424579 823.187423,372.279901 C826.524866,376.135224 828.193588,380.709823 828.193588,386.003699 L828.193588,386.003699 L828.193588,410.34402 C828.193588,415.637896 826.524866,420.183724 823.187423,423.981504 C819.849979,427.779285 815.53432,429.678175 810.240444,429.678175 L810.240444,429.678175 Z M856.676942,437.273736 L856.676942,385.48582 C856.676942,380.422113 858.51829,376.163995 862.200986,372.711467 C865.883683,369.25894 870.256885,367.532676 875.320592,367.532676 L875.320592,367.532676 L913.816276,367.532676 C918.879984,367.532676 923.253185,369.25894 926.935882,372.711467 C930.618578,376.163995 932.459926,380.422113 932.459926,385.48582 L932.459926,385.48582 L932.459926,437.273736 L940.573366,437.273736 L940.573366,386.694205 C940.573366,379.098644 938.012741,372.711467 932.891492,367.532676 C927.770242,362.353884 921.411837,359.764488 913.816276,359.764488 L913.816276,359.764488 L875.320592,359.764488 C867.725031,359.764488 861.366626,362.181258 856.245376,367.014797 C851.124127,371.848335 848.563502,378.005343 848.563502,385.48582 L848.563502,385.48582 L848.563502,437.273736 L856.676942,437.273736 Z M1039.14303,437.446363 L1039.31566,384.795314 C1039.31566,377.199753 1036.84135,370.927661 1031.89273,365.979038 C1026.9441,361.030415 1020.67201,358.556104 1013.07645,358.556104 L1013.07645,358.556104 L960.425401,358.556104 L960.425401,366.324291 L1013.07645,366.324291 C1017.56473,366.324291 1021.39129,367.734073 1024.5561,370.553637 C1027.72092,373.373202 1029.87875,377.602548 1031.02959,383.241677 L1031.02959,383.241677 L973.199753,383.241677 C965.604192,383.241677 959.245787,385.658446 954.124538,390.491985 C949.003288,395.325524 946.442663,401.482532 946.442663,408.963009 C946.442663,417.364159 948.801891,424.096589 953.520345,429.160296 C958.353884,434.569256 964.913687,437.273736 973.199753,437.273736 L973.199753,437.273736 L1011.35018,437.273736 L1011.35018,429.505549 L973.199753,429.505549 C968.136046,429.505549 963.762844,427.692972 960.080148,424.067818 C956.397452,420.442663 954.556104,416.098233 954.556104,411.034525 C954.556104,405.165228 956.196054,400.36046 959.475956,396.620222 C962.755857,392.879984 967.330456,391.009864 973.199753,391.009864 L973.199753,391.009864 L1031.02959,391.009864 L1031.02959,437.446363 L1039.14303,437.446363 Z" id="NerdsAgainstCorona" fill="#21183C" fill-rule="nonzero"></path>
        <g id="icon" transform="translate(35.000000, 96.000000)" fill-rule="nonzero">
            <path d="M276.858526,23.6827913 L235.738515,0 L106.043669,0 L64.9145828,23.6827913 L1.60003698e-13,136.530327 L1.60003698e-13,184.433244 L64.9145825,297.280779 L106.041854,321 L235.738515,321 L276.858526,297.280779 L342,184.436887 L342,136.528505 L276.858526,23.6827913 Z M333.810122,137.223852 L273.196496,215.499376 L174.550399,158.331992 L174.550399,43.8729082 L272.177753,30.4538893 L333.810122,137.223852 Z M232.249376,313.539247 L109.532808,313.539247 L72.3005836,221.959457 L170.834823,164.794123 L269.476382,221.960368 L232.249376,313.539247 Z M108.025794,7.46075322 L233.75639,7.46075322 L262.837308,24.2076031 L170.833008,36.8538622 L78.9405649,24.2091971 L108.025794,7.46075322 Z M69.6046582,30.4550278 L167.115617,43.8722252 L167.115617,158.332219 L68.5834191,215.494594 L8.18465924,137.226812 L69.6046582,30.4550278 Z M7.43478261,182.43691 L7.43478261,148.4398 L64.3827487,222.236094 L99.5048814,308.623547 L70.3527193,291.809074 L7.43478261,182.43691 Z M271.427649,291.809074 L242.276168,308.624685 L277.392175,222.239737 L334.565217,148.412478 L334.565217,182.433267 L271.427649,291.809074 Z" id="dodeca" fill="#9A859E" transform="translate(171.000000, 160.500000) rotate(-180.000000) translate(-171.000000, -160.500000) "></path>
            <path d="M269.555075,190.240868 C265.460798,190.240868 261.951419,192.002445 259.319384,194.938408 L243.819625,188.185694 C246.451659,180.552192 247.621453,172.625093 247.621453,164.110802 C247.621453,161.17484 247.329004,158.532473 247.036556,155.890107 L252.885522,155.009318 C255.225108,159.413262 259.904281,162.642821 265.460798,162.642821 C273.356902,162.642821 279.498316,156.183703 279.498316,148.550201 C279.498316,140.916699 273.064454,134.457581 265.460798,134.457581 C258.442039,134.457581 252.885522,139.448718 251.715729,145.907835 L245.574315,146.788624 C243.527177,137.980736 239.725349,129.466445 235.046176,122.126539 L254.347763,108.033919 C256.68735,109.501901 259.319384,110.676286 262.243867,110.676286 C270.139971,110.676286 276.281385,104.217168 276.281385,96.5836658 C276.281385,88.9501634 269.847523,82.491046 262.243867,82.491046 C254.347763,82.491046 248.206349,88.9501634 248.206349,96.5836658 C248.206349,98.051647 248.498797,99.5196282 248.791246,100.694013 L229.489658,115.080229 C224.518038,109.208304 218.376623,103.923572 211.942761,99.8132245 L219.253968,86.014201 C219.838865,86.014201 220.71621,86.3077972 221.593555,86.3077972 C229.489658,86.3077972 235.631073,79.8486798 235.631073,72.2151775 C235.631073,64.5816751 229.19721,58.1225577 221.593555,58.1225577 C213.697451,58.1225577 207.556037,64.5816751 207.556037,72.2151775 C207.556037,76.0319287 209.018278,79.2614873 211.357864,81.9038536 L204.046657,95.702877 C198.197691,93.0605108 192.056277,91.0053371 185.914863,89.8309522 L186.792208,82.1974498 C192.933622,80.7294686 197.612795,75.1511399 197.612795,68.3984263 C197.612795,60.4713277 191.178932,54.3058066 183.575277,54.3058066 C175.971621,54.3058066 169.537759,60.7649239 169.537759,68.3984263 C169.537759,73.9767549 172.75469,78.9678911 177.726311,81.3166611 L176.848966,88.6565672 C175.386724,88.6565672 173.924483,88.6565672 172.462241,88.6565672 C168.367965,88.6565672 164.273689,88.9501634 160.179413,89.5373559 L154.915344,66.3432526 C159.00962,63.7008864 161.641655,59.2969427 161.641655,54.3058066 C161.641655,46.378708 155.207792,40.2131868 147.604137,40.2131868 C139.708033,40.2131868 133.566619,46.6723042 133.566619,54.3058066 C133.566619,61.6457127 139.123136,67.5176376 146.141895,68.3984263 L151.405964,91.5925296 C138.53824,95.4092808 126.840308,102.749187 117.774411,112.437863 L109.878307,105.685149 C110.463203,104.217168 110.755652,102.455591 110.755652,100.694013 C110.755652,92.7669146 104.321789,86.6013935 96.7181337,86.6013935 C89.1144781,86.6013935 82.6806157,93.0605108 82.6806157,100.694013 C82.6806157,108.327516 89.1144781,114.786633 96.7181337,114.786633 C99.3501684,114.786633 101.689755,113.905844 104.029341,112.731459 L111.925445,119.484173 C103.151996,131.521619 97.5954786,146.201431 97.010582,162.055628 L85.6050986,162.349225 C83.5579606,157.064492 78.5863396,153.247741 72.4449254,153.247741 C64.5488215,153.247741 58.4074074,159.706858 58.4074074,167.340361 C58.4074074,174.973863 64.8412698,181.43298 72.4449254,181.43298 C78.5863396,181.43298 83.8504089,177.322633 85.8975469,171.450708 L97.3030303,171.157112 C98.1803752,179.964999 100.227513,188.47929 104.029341,196.406389 L98.7652718,199.048755 C96.1332371,196.699985 92.9163059,195.232004 89.1144781,195.232004 C81.2183742,195.232004 75.0769601,201.691121 75.0769601,209.324624 C75.0769601,217.251722 81.5108225,223.417243 89.1144781,223.417243 C96.7181337,223.417243 103.151996,216.958126 103.151996,209.324624 C103.151996,208.443835 103.151996,207.856643 102.859548,207.26945 L108.123617,204.627084 C111.0481,209.324624 114.265031,213.434971 118.066859,217.251722 L113.972583,221.655666 C112.217893,220.774877 110.463203,220.481281 108.416065,220.481281 C100.519962,220.481281 94.3785474,226.940398 94.3785474,234.573901 C94.3785474,242.500999 100.81241,248.666521 108.416065,248.666521 C116.019721,248.666521 122.453583,242.207403 122.453583,234.573901 C122.453583,232.225131 121.868687,229.876361 120.698894,227.821187 L124.79317,223.417243 C130.057239,227.821187 135.906205,231.344342 142.047619,233.986708 L135.321308,251.896079 C135.321308,251.896079 135.02886,251.896079 135.02886,251.896079 C127.132756,251.896079 120.991342,258.355197 120.991342,265.988699 C120.991342,273.915798 127.425204,280.081319 135.02886,280.081319 C142.632516,280.081319 149.066378,273.622201 149.066378,265.988699 C149.066378,261.584755 147.01924,257.768004 143.802309,255.125638 L150.52862,237.216267 C157.547379,239.271441 164.858586,240.445826 172.75469,240.445826 C176.556518,240.445826 180.650794,240.152229 184.452621,239.565037 L185.329966,243.381788 C181.23569,245.730558 178.603656,250.428098 178.603656,255.419234 C178.603656,263.346333 185.037518,269.511854 192.641174,269.511854 C200.244829,269.511854 206.678692,263.052736 206.678692,255.419234 C206.678692,248.079328 201.122174,242.207403 194.395863,241.326614 L193.518519,237.216267 C200.244829,235.454689 206.678692,232.518727 212.235209,228.995572 L217.20683,238.390652 C215.45214,240.739422 214.282347,243.675384 214.282347,247.198539 C214.282347,255.125638 220.71621,261.291159 228.319865,261.291159 C236.215969,261.291159 242.357383,254.832042 242.357383,247.198539 C242.357383,239.565037 235.923521,233.10592 228.319865,233.10592 C227.150072,233.10592 225.980279,233.399516 225.102934,233.399516 L218.669072,223.71084 C227.734969,216.370934 235.046176,207.26945 240.310245,196.699985 L255.517557,203.452699 C255.517557,203.746295 255.517557,204.039891 255.517557,204.627084 C255.517557,212.554182 261.951419,218.719704 269.555075,218.719704 C277.451178,218.719704 283.592593,212.260586 283.592593,204.627084 C283.592593,196.699985 277.451178,190.240868 269.555075,190.240868 Z" id="virus" fill="#AB24FF"></path>
            <path d="M276.858526,23.6827913 L235.738515,1.60410879e-13 L106.043669,1.60410879e-13 L64.9145828,23.6827913 L0,136.530327 L0,184.433244 L64.9145825,297.280779 L106.041854,321 L235.738515,321 L276.858526,297.280779 L342,184.436887 L342,136.528505 L276.858526,23.6827913 Z M333.810122,137.223852 L273.196496,215.499376 L174.550399,158.331992 L174.550399,43.8729082 L272.177753,30.4538893 L333.810122,137.223852 Z M232.249376,313.539247 L109.532808,313.539247 L72.3005836,221.959457 L170.834823,164.794123 L269.476382,221.960368 L232.249376,313.539247 Z M108.025794,7.46075322 L233.75639,7.46075322 L262.837308,24.2076031 L170.833008,36.8538622 L78.9405649,24.2091971 L108.025794,7.46075322 Z M69.6046582,30.4550278 L167.115617,43.8722252 L167.115617,158.332219 L68.5834191,215.494594 L8.18465924,137.226812 L69.6046582,30.4550278 Z M7.43478261,182.43691 L7.43478261,148.4398 L64.3827487,222.236094 L99.5048814,308.623547 L70.3527193,291.809074 L7.43478261,182.43691 Z M271.427649,291.809074 L242.276168,308.624685 L277.392175,222.239737 L334.565217,148.412478 L334.565217,182.433267 L271.427649,291.809074 Z" id="dodeca" fill="#4A0059"></path>
        </g>
    </g>
</svg>