<?xml version="1.0" encoding="UTF-8"?>
<svg width="512px" height="512px" viewBox="0 0 512 512" version="1.1" xmlns="http://www.w3.org/2000/svg" xmlns:xlink="http://www.w3.org/1999/xlink">
    <!-- Generator: Sketch 63.1 (92452) - https://sketch.com -->
    <title>logo</title>
    <desc>Created with Sketch.</desc>
    <g id="logo" stroke="none" stroke-width="1" fill="none" fill-rule="evenodd">
        <g id="icon" transform="translate(13.000000, 29.000000)" fill-rule="nonzero">
            <path d="M393.430537,33.5690656 L334.996837,0 L150.693635,0 L92.2470388,33.5690656 L2.27373675e-13,193.524295 L2.27373675e-13,261.424068 L92.2470382,421.379298 L150.691056,455 L334.996837,455 L393.430537,421.379298 L486,261.429232 L486,193.521713 L393.430537,33.5690656 Z M474.361753,194.50733 L388.2266,305.458617 L248.045304,224.426967 L248.045304,62.1874556 L386.778912,43.1667278 L474.361753,194.50733 Z M330.038587,444.424789 L155.651885,444.424789 L102.742935,314.61543 L242.765275,233.586685 L382.940122,314.616721 L330.038587,444.424789 Z M153.510339,10.575211 L332.180133,10.575211 L373.505648,34.3129576 L242.762695,52.2383405 L112.178697,34.315217 L153.510339,10.575211 Z M98.9118827,43.1683416 L237.480087,62.1864874 L237.480087,224.427289 L97.4606481,305.451839 L11.6308316,194.511525 L98.9118827,43.1683416 Z M10.5652174,258.594373 L10.5652174,210.405324 L91.4912744,315.007547 L141.401674,437.457052 L99.9749168,413.623454 L10.5652174,258.594373 Z M385.712976,413.623454 L344.287187,437.458666 L394.18888,315.012711 L475.434783,210.366596 L475.434783,258.58921 L385.712976,413.623454 Z" id="dodeca" fill="#9A859E" transform="translate(243.000000, 227.500000) rotate(-180.000000) translate(-243.000000, -227.500000) "></path>
            <path d="M383.051948,269.656059 C377.233766,269.656059 372.246753,272.152999 368.506494,276.314565 L346.480519,266.742962 C350.220779,255.922889 351.883117,244.686659 351.883117,232.618115 C351.883117,228.456548 351.467532,224.711138 351.051948,220.965728 L359.363636,219.717258 C362.688312,225.959608 369.337662,230.537332 377.233766,230.537332 C388.454545,230.537332 397.181818,221.381885 397.181818,210.561812 C397.181818,199.741738 388.038961,190.586291 377.233766,190.586291 C367.25974,190.586291 359.363636,197.660955 357.701299,206.816401 L348.974026,208.064871 C346.064935,195.580171 340.662338,183.511628 334.012987,173.107711 L361.441558,153.132191 C364.766234,155.212974 368.506494,156.877601 372.662338,156.877601 C383.883117,156.877601 392.61039,147.722154 392.61039,136.902081 C392.61039,126.082007 383.467532,116.926561 372.662338,116.926561 C361.441558,116.926561 352.714286,126.082007 352.714286,136.902081 C352.714286,138.982864 353.12987,141.063647 353.545455,142.728274 L326.116883,163.119951 C319.051948,154.796818 310.324675,147.305998 301.181818,141.479804 L311.571429,121.920441 C312.402597,121.920441 313.649351,122.336597 314.896104,122.336597 C326.116883,122.336597 334.844156,113.181151 334.844156,102.361077 C334.844156,91.5410037 325.701299,82.3855569 314.896104,82.3855569 C303.675325,82.3855569 294.948052,91.5410037 294.948052,102.361077 C294.948052,107.771114 297.025974,112.348837 300.350649,116.094247 L289.961039,135.653611 C281.649351,131.908201 272.922078,128.995104 264.194805,127.330477 L265.441558,116.510404 C274.168831,114.429621 280.818182,106.522644 280.818182,96.9510404 C280.818182,85.7148103 271.675325,76.9755202 260.87013,76.9755202 C250.064935,76.9755202 240.922078,86.130967 240.922078,96.9510404 C240.922078,104.858017 245.493506,111.932681 252.558442,115.261934 L251.311688,125.665851 C249.233766,125.665851 247.155844,125.665851 245.077922,125.665851 C239.25974,125.665851 233.441558,126.082007 227.623377,126.914321 L220.142857,94.0379437 C225.961039,90.2925337 229.701299,84.0501836 229.701299,76.9755202 C229.701299,65.7392901 220.558442,57 209.753247,57 C198.532468,57 189.805195,66.1554468 189.805195,76.9755202 C189.805195,87.379437 197.701299,95.7025704 207.675325,96.9510404 L215.155844,129.827417 C196.87013,135.237454 180.246753,145.641371 167.363636,159.374541 L156.142857,149.802938 C156.974026,147.722154 157.38961,145.225214 157.38961,142.728274 C157.38961,131.492044 148.246753,122.752754 137.441558,122.752754 C126.636364,122.752754 117.493506,131.908201 117.493506,142.728274 C117.493506,153.548348 126.636364,162.703794 137.441558,162.703794 C141.181818,162.703794 144.506494,161.455324 147.831169,159.790698 L159.051948,169.362301 C146.584416,186.424725 138.688312,207.232558 137.857143,229.705018 L121.649351,230.121175 C118.74026,222.630355 111.675325,217.220318 102.948052,217.220318 C91.7272727,217.220318 83,226.375765 83,237.195838 C83,248.015912 92.1428571,257.171359 102.948052,257.171359 C111.675325,257.171359 119.155844,251.345165 122.064935,243.022032 L138.272727,242.605875 C139.519481,255.090575 142.428571,267.159119 147.831169,278.395349 L140.350649,282.140759 C136.61039,278.811506 132.038961,276.730722 126.636364,276.730722 C115.415584,276.730722 106.688312,285.886169 106.688312,296.706242 C106.688312,307.942472 115.831169,316.681763 126.636364,316.681763 C137.441558,316.681763 146.584416,307.526316 146.584416,296.706242 C146.584416,295.457772 146.584416,294.625459 146.168831,293.793146 L153.649351,290.047736 C157.805195,296.706242 162.376623,302.532436 167.779221,307.942472 L161.961039,314.184823 C159.467532,312.936353 156.974026,312.520196 154.064935,312.520196 C142.844156,312.520196 134.116883,321.675643 134.116883,332.495716 C134.116883,343.731946 143.25974,352.471236 154.064935,352.471236 C164.87013,352.471236 174.012987,343.315789 174.012987,332.495716 C174.012987,329.166463 173.181818,325.837209 171.519481,322.924113 L177.337662,316.681763 C184.818182,322.924113 193.12987,327.917993 201.857143,331.663403 L192.298701,357.04896 C192.298701,357.04896 191.883117,357.04896 191.883117,357.04896 C180.662338,357.04896 171.935065,366.204406 171.935065,377.02448 C171.935065,388.26071 181.077922,397 191.883117,397 C202.688312,397 211.831169,387.844553 211.831169,377.02448 C211.831169,370.78213 208.922078,365.372093 204.350649,361.626683 L213.909091,336.241126 C223.883117,339.154223 234.272727,340.818849 245.493506,340.818849 C250.896104,340.818849 256.714286,340.402693 262.116883,339.570379 L263.363636,344.980416 C257.545455,348.30967 253.805195,354.968176 253.805195,362.04284 C253.805195,373.27907 262.948052,382.01836 273.753247,382.01836 C284.558442,382.01836 293.701299,372.862913 293.701299,362.04284 C293.701299,351.638923 285.805195,343.315789 276.246753,342.067319 L275,336.241126 C284.558442,333.744186 293.701299,329.582619 301.597403,324.588739 L308.662338,337.905753 C306.168831,341.235006 304.506494,345.396573 304.506494,350.390453 C304.506494,361.626683 313.649351,370.365973 324.454545,370.365973 C335.675325,370.365973 344.402597,361.210526 344.402597,350.390453 C344.402597,339.570379 335.25974,330.414933 324.454545,330.414933 C322.792208,330.414933 321.12987,330.831089 319.883117,330.831089 L310.74026,317.097919 C323.623377,306.694002 334.012987,293.793146 341.493506,278.811506 L363.103896,288.383109 C363.103896,288.799266 363.103896,289.215422 363.103896,290.047736 C363.103896,301.283966 372.246753,310.023256 383.051948,310.023256 C394.272727,310.023256 403,300.867809 403,290.047736 C403,278.811506 394.272727,269.656059 383.051948,269.656059 Z" id="virus" fill="#AB24FF"></path>
            <path d="M393.430537,33.5690656 L334.996837,2.27373675e-13 L150.693635,2.27373675e-13 L92.2470388,33.5690656 L0,193.524295 L0,261.424068 L92.2470382,421.379298 L150.691056,455 L334.996837,455 L393.430537,421.379298 L486,261.429232 L486,193.521713 L393.430537,33.5690656 Z M474.361753,194.50733 L388.2266,305.458617 L248.045304,224.426967 L248.045304,62.1874556 L386.778912,43.1667278 L474.361753,194.50733 Z M330.038587,444.424789 L155.651885,444.424789 L102.742935,314.61543 L242.765275,233.586685 L382.940122,314.616721 L330.038587,444.424789 Z M153.510339,10.575211 L332.180133,10.575211 L373.505648,34.3129576 L242.762695,52.2383405 L112.178697,34.315217 L153.510339,10.575211 Z M98.9118827,43.1683416 L237.480087,62.1864874 L237.480087,224.427289 L97.4606481,305.451839 L11.6308316,194.511525 L98.9118827,43.1683416 Z M10.5652174,258.594373 L10.5652174,210.405324 L91.4912744,315.007547 L141.401674,437.457052 L99.9749168,413.623454 L10.5652174,258.594373 Z M385.712976,413.623454 L344.287187,437.458666 L394.18888,315.012711 L475.434783,210.366596 L475.434783,258.58921 L385.712976,413.623454 Z" id="dodeca" fill="#4A0059"></path>
        </g>
    </g>
</svg>