<?xml version="1.0" encoding="UTF-8"?>
<svg width="2625px" height="321px" viewBox="0 0 2625 321" version="1.1" xmlns="http://www.w3.org/2000/svg" xmlns:xlink="http://www.w3.org/1999/xlink">
    <!-- Generator: Sketch 64 (93537) - https://sketch.com -->
    <title>logo-nerds-against-corona-line</title>
    <desc>Created with Sketch.</desc>
    <g id="logo-nerds-against-corona-line" stroke="none" stroke-width="1" fill="none" fill-rule="evenodd">
        <g id="Group-3" transform="translate(440.000000, 76.000000)" fill="#21183C" fill-rule="nonzero">
            <g id="Group-2">
                <path d="M10.0130378,130.466437 L10.0130378,66.4076301 C10.0130378,60.1441023 12.2855002,54.8770448 16.8304252,50.6064576 C21.3753501,46.3358705 26.7724485,44.2005769 33.0217203,44.2005769 L33.0217203,44.2005769 L80.5303889,44.2005769 C86.7796607,44.2005769 92.1767591,46.3358705 96.721684,50.6064576 C101.266609,54.8770448 103.539071,60.1441023 103.539071,66.4076301 L103.539071,66.4076301 L103.539071,130.466437 L113.552109,130.466437 L113.552109,67.9023356 C113.552109,58.5070438 110.391966,50.6064576 104.07168,44.2005769 C97.7513936,37.7946962 89.9042966,34.5917559 80.5303889,34.5917559 L80.5303889,34.5917559 L33.0217203,34.5917559 C23.6478126,34.5917559 15.8007156,37.5811669 9.48042938,43.5599889 C3.16014313,49.5388109 -1.75247305e-14,57.1546913 -1.75247305e-14,66.4076301 L-1.75247305e-14,66.4076301 L-1.75247305e-14,130.466437 L10.0130378,130.466437 Z" id="Path"></path>
                <path d="M233.921606,130.679967 L233.921606,121.071145 L161.912951,121.071145 C155.379622,121.071145 150.053538,118.722323 145.934699,114.024677 C141.815861,109.327031 139.756442,103.704091 139.756442,97.1558575 L139.756442,97.1558575 L139.756442,65.5535126 C139.756442,59.005279 141.744847,53.5958686 145.721656,49.3252815 C149.698465,45.0546944 154.88252,42.8482243 161.273821,42.7058714 L161.273821,42.7058714 L211.33901,42.0652834 C218.156397,41.9229304 223.695525,43.9870476 227.956392,48.2576347 C232.217259,52.5282218 234.347693,58.0799851 234.347693,64.9129246 C234.347693,72.3152756 232.323781,78.2940976 228.275957,82.8493906 C224.228133,87.4046835 218.582484,89.68233 211.33901,89.68233 L211.33901,89.68233 L178.743376,89.68233 L178.743376,99.2911511 L211.33901,99.2911511 C220.854947,99.2911511 228.737551,96.3373283 234.986823,90.4296827 C241.236094,84.5220372 244.36073,76.8705686 244.36073,67.4752768 C244.36073,57.2258677 241.662181,49.0405757 236.265083,42.9194008 C230.441898,36.3711672 222.488279,33.0970504 212.404227,33.0970504 L212.404227,33.0970504 L161.486865,33.0970504 C151.828899,33.0970504 144.088324,35.9796967 138.265139,41.7449893 C132.441954,47.510282 129.530361,55.232927 129.530361,64.9129246 L129.530361,64.9129246 L129.530361,98.2235043 C129.530361,107.761149 132.512968,115.55497 138.478182,121.604969 C144.443396,127.654967 152.254986,130.679967 161.912951,130.679967 L161.912951,130.679967 L233.921606,130.679967 Z" id="Path"></path>
                <path d="M267.7955,130.679967 L267.7955,66.6211594 C267.7955,60.2152787 269.925933,54.6279272 274.1868,49.8591049 C278.447667,45.0902826 283.773751,42.7058714 290.165052,42.7058714 L290.165052,42.7058714 L355.569363,42.7058714 L355.569363,33.0970504 L290.165052,33.0970504 C280.791144,33.0970504 273.015062,36.1576378 266.836804,42.2788127 C260.658547,48.3999876 257.569418,56.1582209 257.569418,65.5535126 L257.569418,65.5535126 L257.782462,130.679967 L267.7955,130.679967 Z" id="Path"></path>
                <path d="M440.786705,130.466437 C450.160613,130.466437 458.00771,127.263497 464.327996,120.857616 C470.648283,114.451735 473.808426,106.551149 473.808426,97.1558575 L473.808426,97.1558575 L473.808426,-7.90311213e-14 L463.795388,-7.90311213e-14 L463.795388,98.650563 C463.795388,104.914091 461.522925,110.181148 456.978001,114.451735 C452.433076,118.722323 447.035977,120.857616 440.786705,120.857616 L440.786705,120.857616 L393.278037,120.857616 C386.744707,120.857616 381.489638,118.722323 377.512828,114.451735 C373.536019,110.181148 371.547614,104.771738 371.547614,98.2235043 L371.547614,98.2235043 L371.547614,67.9023356 C371.547614,61.3541019 373.607034,55.7311622 377.725872,51.0335163 C381.84471,46.3358705 387.170794,43.9870476 393.704124,43.9870476 L393.704124,43.9870476 L445.047573,43.9870476 L445.260616,34.5917559 L393.704124,34.3782265 C384.046158,34.3782265 376.234568,37.4032257 370.269354,43.4532242 C364.30414,49.5032226 361.321533,57.3682206 361.321533,67.0482181 L361.321533,67.0482181 L361.321533,100.145268 C361.321533,109.398207 364.30414,116.76497 370.269354,122.245557 C376.234568,127.726144 383.904129,130.466437 393.278037,130.466437 L393.278037,130.466437 L440.786705,130.466437 Z" id="Path"></path>
                <path d="M562.647506,130.252908 C570.459095,130.252908 576.566338,127.40585 580.969234,121.711734 C584.946044,116.587029 586.934448,109.967619 586.934448,101.853503 C586.934448,94.5935052 584.697493,88.4367421 580.223582,83.383214 C575.749672,78.3296858 569.89098,75.8029218 562.647506,75.8029218 L562.647506,75.8029218 L511.5171,75.5893924 C501.717105,75.5893924 496.817108,69.9664527 496.817108,58.7205732 C496.817108,47.9017524 502.285221,42.4923421 513.221447,42.4923421 L513.221447,42.4923421 L582.460538,42.7058714 L582.460538,33.0970504 L509.812753,33.0970504 C502.569279,33.0970504 496.710587,35.6594026 492.236676,40.7841072 C487.762766,45.9088118 485.52581,52.1011631 485.52581,59.3611613 C485.52581,66.6211594 487.762766,72.7779225 492.236676,77.8314507 C496.710587,82.8849788 502.569279,85.4117428 509.812753,85.4117428 L509.812753,85.4117428 L560.730115,85.6252722 C570.672139,85.6252722 575.64315,91.2482119 575.64315,102.494091 C575.64315,114.736441 570.175037,120.857616 559.238812,120.857616 L559.238812,120.857616 L489.999721,120.644087 L489.999721,130.252908 L562.647506,130.252908 Z" id="Path"></path>
            </g>
            <g id="Group" transform="translate(686.000000, 0.000000)">
                <path d="M114.503775,131.931636 L114.717004,66.9249334 C114.717004,57.5469173 111.660727,49.8029494 105.548173,43.6930298 C99.4356186,37.5831102 91.6883117,34.5281504 82.3062519,34.5281504 L82.3062519,34.5281504 L17.2715192,34.5281504 L17.2715192,44.1193032 L82.3062519,44.1193032 C87.8501963,44.1193032 92.5767643,45.8599199 96.4859559,49.3411531 C100.395147,52.8223864 103.060505,58.0442363 104.48203,65.0067028 L104.48203,65.0067028 L33.0504379,65.0067028 C23.6683781,65.0067028 15.8144569,67.990617 9.48867412,73.9584455 C3.16289137,79.926274 1.7539971e-14,87.5281504 1.7539971e-14,96.7640757 C1.7539971e-14,107.13673 2.91412464,115.449062 8.74237391,121.701073 C14.7127756,128.379357 22.8154636,131.718499 33.0504379,131.718499 L33.0504379,131.718499 L80.1739656,131.718499 L80.1739656,122.127347 L33.0504379,122.127347 C26.7957314,122.127347 21.3939394,119.889411 16.8450619,115.41354 C12.2961844,110.937668 10.0217457,105.573727 10.0217457,99.3217164 C10.0217457,92.0750676 12.0474177,86.1427619 16.0987617,81.5247994 C20.1501057,76.9068369 25.8006645,74.5978557 33.0504379,74.5978557 L33.0504379,74.5978557 L104.48203,74.5978557 L104.48203,131.931636 L114.503775,131.931636 Z" id="Path"></path>
                <path d="M210.243431,168.16488 C219.625491,168.16488 227.301722,165.109921 233.272123,159.000001 C239.242525,152.890081 242.369878,145.146114 242.654183,135.768097 C243.06791,121.293887 243.280949,99.9992054 243.293869,71.8840539 L243.293869,69.2694374 C243.293869,59.7493301 240.166516,51.8277483 233.911809,45.504692 C227.657103,39.1816356 219.767643,36.0201075 210.243431,36.0201075 L210.243431,36.0201075 L162.693446,36.0201075 C153.311386,36.0201075 145.635156,38.7553622 139.664754,44.2258716 C133.694352,49.696381 130.709151,57.0495982 130.709151,66.2855232 L130.709151,66.2855232 L130.709151,99.5348532 C130.709151,109.05496 133.694352,116.834451 139.664754,122.873325 C145.635156,128.912199 153.453539,131.931636 163.119903,131.931636 L163.119903,131.931636 L209.390516,131.718499 L209.177288,122.340483 L163.119903,122.340483 C156.723044,122.340483 151.427867,119.995979 147.23437,115.306971 C143.040874,110.617963 140.944126,105.005363 140.944126,98.4691695 L140.944126,98.4691695 L140.944126,68.4168905 C140.944126,61.8806974 142.93426,56.4457108 146.914527,52.1119306 C150.894795,47.7781504 156.154435,45.6112603 162.693446,45.6112603 L162.693446,45.6112603 L210.243431,45.6112603 C216.924595,45.6112603 222.468539,47.6360593 226.875264,51.6856572 C231.281989,55.735255 233.414276,61.0991961 233.272123,67.7774803 L233.272123,67.7774803 L232.419209,134.702414 C232.277056,141.096516 230.215846,146.638071 226.235578,151.327079 C221.828853,156.158178 216.498138,158.573728 210.243431,158.573728 L210.243431,158.573728 L145.208698,158.573728 L145.208698,168.16488 L210.243431,168.16488 Z" id="Path"></path>
                <path d="M370.164905,131.931636 L370.378133,66.9249334 C370.378133,57.5469173 367.321856,49.8029494 361.209302,43.6930298 C355.096748,37.5831102 347.349441,34.5281504 337.967381,34.5281504 L337.967381,34.5281504 L272.932649,34.5281504 L272.932649,44.1193032 L337.967381,44.1193032 C343.511326,44.1193032 348.237894,45.8599199 352.147085,49.3411531 C356.056277,52.8223864 358.721635,58.0442363 360.143159,65.0067028 L360.143159,65.0067028 L288.711568,65.0067028 C279.329508,65.0067028 271.475586,67.990617 265.149804,73.9584455 C258.824021,79.926274 255.66113,87.5281504 255.66113,96.7640757 C255.66113,107.13673 258.575254,115.449062 264.403503,121.701073 C270.373905,128.379357 278.476593,131.718499 288.711568,131.718499 L288.711568,131.718499 L335.835095,131.718499 L335.835095,122.127347 L288.711568,122.127347 C282.456861,122.127347 277.055069,119.889411 272.506191,115.41354 C267.957314,110.937668 265.682875,105.573727 265.682875,99.3217164 C265.682875,92.0750676 267.708547,86.1427619 271.759891,81.5247994 C275.811235,76.9068369 281.461794,74.5978557 288.711568,74.5978557 L288.711568,74.5978557 L360.143159,74.5978557 L360.143159,131.931636 L370.164905,131.931636 Z" id="Path"></path>
                <polygon id="Path" points="398.737542 131.718499 398.737542 37.2989278 387.009967 37.2989278 387.009967 131.718499"></polygon>
                <path d="M434.559952,131.718499 L434.559952,67.7774803 C434.559952,61.5254696 436.83439,56.2680969 441.383268,52.0053623 C445.932145,47.7426276 451.333937,45.6112603 457.588644,45.6112603 L457.588644,45.6112603 L505.138629,45.6112603 C511.393335,45.6112603 516.795127,47.7426276 521.344005,52.0053623 C525.892882,56.2680969 528.167321,61.5254696 528.167321,67.7774803 L528.167321,67.7774803 L528.167321,131.718499 L538.189067,131.718499 L538.189067,69.2694374 C538.189067,59.8914213 535.026175,52.0053623 528.700393,45.6112603 C522.37461,39.2171584 514.520689,36.0201075 505.138629,36.0201075 L505.138629,36.0201075 L457.588644,36.0201075 C448.206584,36.0201075 440.352663,39.0040217 434.02688,44.9718501 C427.701097,50.9396786 424.538206,58.5415553 424.538206,67.7774803 L424.538206,67.7774803 L424.538206,131.718499 L434.559952,131.718499 Z" id="Path"></path>
                <path d="M623.693748,131.505363 C631.512131,131.505363 637.624685,128.66354 642.03141,122.979894 C646.011678,117.864612 648.001812,111.257373 648.001812,103.158178 C648.001812,95.9115288 645.762912,89.7660864 641.28511,84.7218504 C636.807309,79.6776144 630.943522,77.1554965 623.693748,77.1554965 L623.693748,77.1554965 L572.518876,76.9423597 C562.710359,76.9423597 557.806101,71.3297592 557.806101,60.104558 C557.806101,49.3056303 563.278969,43.9061665 574.224706,43.9061665 L574.224706,43.9061665 L643.524011,44.1193032 L643.524011,34.5281504 L570.813047,34.5281504 C563.563274,34.5281504 557.699487,37.0857911 553.221685,42.2010727 C548.743884,47.3163542 546.504983,53.4973194 546.504983,60.7439682 C546.504983,67.990617 548.743884,74.1360594 553.221685,79.1802954 C557.699487,84.2245314 563.563274,86.7466493 570.813047,86.7466493 L570.813047,86.7466493 L621.77469,86.9597861 C631.72536,86.9597861 636.700695,92.5723866 636.700695,103.797588 C636.700695,116.017427 631.227826,122.127347 620.28209,122.127347 L620.28209,122.127347 L550.982785,121.91421 L550.982785,131.505363 L623.693748,131.505363 Z" id="Path"></path>
                <path d="M706,131.931636 L706,122.340483 L694.059197,122.340483 C687.378033,122.340483 681.79855,120.031502 677.320749,115.41354 C672.842948,110.795577 670.604047,105.147454 670.604047,98.4691695 L670.604047,98.4691695 L670.604047,45.1849869 L705.360314,45.1849869 L705.360314,35.8069707 L670.604047,35.593834 L670.604047,7.01207138e-14 L659.942616,7.01207138e-14 L659.729387,99.5348532 C659.729387,109.197052 663.034431,117.012065 669.644518,122.979894 C676.254606,128.947722 684.392832,131.931636 694.059197,131.931636 L694.059197,131.931636 L706,131.931636 Z" id="Path"></path>
                <polygon id="Path" points="398.737542 17.2640752 398.737542 8.09919576 387.009967 8.09919576 387.009967 17.2640752"></polygon>
            </g>
            <path d="M1594.79314,34.4245077 L1594.79314,43.7636761 L1522.37511,43.7636761 L1521.92057,43.767707 C1515.73404,43.8778849 1510.5962,46.246709 1506.50705,50.8741794 C1502.31816,55.614515 1500.22372,61.2392414 1500.22372,67.7483589 L1500.22372,67.7483589 L1500.22372,97.6761488 L1500.22831,98.2018995 C1500.33846,104.486721 1502.43138,109.900822 1506.50705,114.444201 C1510.69593,119.113786 1515.98529,121.448578 1522.37511,121.448578 L1522.37511,121.448578 L1594.79314,121.448578 L1594.79314,131 L1522.37511,131 L1521.80638,130.996434 C1512.5511,130.879949 1504.96639,127.909584 1499.05225,122.085339 C1493.01742,116.142232 1490,108.359592 1490,98.7374179 L1490,98.7374179 L1490,65.6258206 L1490.00348,65.0785386 C1490.11949,55.9918551 1493.13575,48.6392715 1499.05225,43.0207877 C1505.08709,37.2899344 1512.86138,34.4245077 1522.37511,34.4245077 L1522.37511,34.4245077 L1594.79314,34.4245077 Z M1676.79589,34.4245077 L1677.36763,34.4281322 C1686.48283,34.5441159 1694.03103,37.4437101 1700.01226,43.1269147 C1706.11809,48.9285193 1709.17101,56.4281546 1709.17101,65.6258206 L1709.17101,65.6258206 L1709.17101,98.7374179 L1709.16733,99.2986397 C1709.04952,108.247777 1706.10433,115.737217 1700.33175,121.766958 C1694.43891,127.922319 1686.87762,131 1677.64787,131 L1677.64787,131 L1628.02023,131 L1627.45988,130.996349 C1618.33958,130.877091 1610.78758,127.836003 1604.80386,121.873085 C1598.69803,115.788476 1595.64511,108.076586 1595.64511,98.7374179 L1595.64511,98.7374179 L1595.64511,65.6258206 L1595.64859,65.0785386 C1595.7646,55.9918551 1598.78086,48.6392715 1604.69736,43.0207877 C1610.7322,37.2899344 1618.50649,34.4245077 1628.02023,34.4245077 L1628.02023,34.4245077 L1676.79589,34.4245077 Z M1823.12289,34 L1823.12289,43.5514223 L1757.73368,43.5514223 L1757.27908,43.5554532 C1751.09089,43.6656311 1745.91758,46.0344552 1741.75912,50.6619256 C1737.49923,55.4022611 1735.36929,60.9562363 1735.36929,67.3238512 L1735.36929,67.3238512 L1735.36929,131 L1725.35857,131 L1725.14557,66.2625821 L1725.14928,65.7041847 C1725.27034,56.6155889 1728.35752,49.0898322 1734.41082,43.1269147 C1740.58765,37.0423049 1748.36194,34 1757.73368,34 L1757.73368,34 L1823.12289,34 Z M1902.35673,34.4245077 L1902.92847,34.4281322 C1912.04366,34.5441159 1919.59187,37.4437101 1925.57309,43.1269147 C1931.67893,48.9285193 1934.73184,56.4281546 1934.73184,65.6258206 L1934.73184,65.6258206 L1934.73184,98.7374179 L1934.72816,99.2986397 C1934.61035,108.247777 1931.66516,115.737217 1925.89258,121.766958 C1919.99974,127.922319 1912.43845,131 1903.2087,131 L1903.2087,131 L1853.58106,131 L1853.02072,130.996349 C1843.90042,130.877091 1836.34841,127.836003 1830.3647,121.873085 C1824.25886,115.788476 1821.20595,108.076586 1821.20595,98.7374179 L1821.20595,98.7374179 L1821.20595,65.6258206 L1821.20943,65.0785386 C1821.32544,55.9918551 1824.34169,48.6392715 1830.2582,43.0207877 C1836.29303,37.2899344 1844.06732,34.4245077 1853.58106,34.4245077 L1853.58106,34.4245077 L1902.35673,34.4245077 Z M2152.62489,34 L2153.18523,34.0036508 C2162.30553,34.1229091 2169.85753,37.1639971 2175.84125,43.1269147 C2181.94708,49.2115244 2185,56.9234136 2185,66.2625821 L2185,66.2625821 L2184.78701,131 L2174.77628,131 L2174.77628,73.9037199 L2103.42323,73.9037199 L2102.93195,73.9072831 C2095.92569,74.0094266 2090.44511,76.3076553 2086.49019,80.8019694 C2082.4433,85.4008023 2080.41986,91.3085339 2080.41986,98.5251641 C2080.41986,104.751276 2082.6918,110.092998 2087.23567,114.550328 C2091.77955,119.007659 2097.1754,121.236324 2103.42323,121.236324 L2103.42323,121.236324 L2150.49494,121.236324 L2150.49494,130.787746 L2103.42323,130.787746 L2102.86769,130.784448 C2092.90589,130.665727 2084.9973,127.341516 2079.14189,120.811816 C2073.32005,114.585704 2070.40913,106.307805 2070.40913,95.9781182 C2070.40913,86.7804522 2073.56855,79.2100656 2079.88737,73.2669584 C2086.2062,67.3238512 2094.05149,64.3522976 2103.42323,64.3522976 L2103.42323,64.3522976 L2174.77628,64.3522976 L2174.65153,63.7622319 C2173.20317,57.1229322 2170.58232,52.1194019 2166.789,48.7516411 C2162.8841,45.2848286 2158.16273,43.5514223 2152.62489,43.5514223 L2152.62489,43.5514223 L2087.66166,43.5514223 L2087.66166,34 L2152.62489,34 Z M2030.15323,35.4857768 L2030.70275,35.489449 C2039.83205,35.6118561 2047.49416,38.7944394 2053.68909,45.0371991 C2060.00792,51.404814 2063.16733,59.2582057 2063.16733,68.5973742 L2063.16733,68.5973742 L2063.16733,130.787746 L2053.1566,130.787746 L2053.1566,67.1115974 L2053.15234,66.6464962 C2053.04159,60.6243244 2050.77107,55.5437637 2046.34079,51.404814 C2041.79691,47.1597374 2036.40106,45.0371991 2030.15323,45.0371991 L2030.15323,45.0371991 L1982.65553,45.0371991 L1982.15082,45.0418504 C1976.11666,45.1534814 1970.88904,47.2744692 1966.46797,51.404814 C1961.9241,55.6498906 1959.65216,60.885485 1959.65216,67.1115974 L1959.65216,67.1115974 L1959.65216,130.787746 L1949.64143,130.787746 L1949.64143,67.1115974 L1949.64508,66.5724351 C1949.76655,57.6176792 1952.92475,50.2270133 1959.11968,44.4004376 C1965.4385,38.4573304 1973.28379,35.4857768 1982.65553,35.4857768 L1982.65553,35.4857768 L2030.15323,35.4857768 Z M1676.79589,43.7636761 L1628.02023,43.7636761 L1627.55572,43.767707 C1621.23553,43.8778849 1616.06551,46.246709 1612.04566,50.8741794 C1607.92778,55.614515 1605.86883,61.2392414 1605.86883,67.7483589 L1605.86883,67.7483589 L1605.86883,97.6761488 L1605.87334,98.2018995 C1605.98163,104.486721 1608.03907,109.900822 1612.04566,114.444201 C1616.16355,119.113786 1621.48841,121.448578 1628.02023,121.448578 L1628.02023,121.448578 L1676.79589,121.448578 C1683.32771,121.448578 1688.65257,119.113786 1692.77046,114.444201 C1696.88834,109.774617 1698.94729,104.185266 1698.94729,97.6761488 L1698.94729,97.6761488 L1698.94729,67.7483589 L1698.94252,67.2079796 C1698.83131,60.927439 1696.77396,55.482839 1692.77046,50.8741794 C1688.65257,46.1338439 1683.32771,43.7636761 1676.79589,43.7636761 L1676.79589,43.7636761 Z M1902.35673,43.7636761 L1853.58106,43.7636761 L1853.11655,43.767707 C1846.79636,43.8778849 1841.62634,46.246709 1837.6065,50.8741794 C1833.48861,55.614515 1831.42967,61.2392414 1831.42967,67.7483589 L1831.42967,67.7483589 L1831.42967,97.6761488 L1831.43418,98.2018995 C1831.54246,104.486721 1833.5999,109.900822 1837.6065,114.444201 C1841.72438,119.113786 1847.04924,121.448578 1853.58106,121.448578 L1853.58106,121.448578 L1902.35673,121.448578 C1908.88855,121.448578 1914.2134,119.113786 1918.33129,114.444201 C1922.44918,109.774617 1924.50812,104.185266 1924.50812,97.6761488 L1924.50812,97.6761488 L1924.50812,67.7483589 L1924.50336,67.2079796 C1924.39215,60.927439 1922.33479,55.482839 1918.33129,50.8741794 C1914.2134,46.1338439 1908.88855,43.7636761 1902.35673,43.7636761 L1902.35673,43.7636761 Z" id="Combined-Shape"></path>
        </g>
        <g id="icon" fill-rule="nonzero">
            <path d="M276.858526,23.6827913 L235.738515,0 L106.043669,0 L64.9145828,23.6827913 L1.60003698e-13,136.530327 L1.60003698e-13,184.433244 L64.9145825,297.280779 L106.041854,321 L235.738515,321 L276.858526,297.280779 L342,184.436887 L342,136.528505 L276.858526,23.6827913 Z M333.810122,137.223852 L273.196496,215.499376 L174.550399,158.331992 L174.550399,43.8729082 L272.177753,30.4538893 L333.810122,137.223852 Z M232.249376,313.539247 L109.532808,313.539247 L72.3005836,221.959457 L170.834823,164.794123 L269.476382,221.960368 L232.249376,313.539247 Z M108.025794,7.46075322 L233.75639,7.46075322 L262.837308,24.2076031 L170.833008,36.8538622 L78.9405649,24.2091971 L108.025794,7.46075322 Z M69.6046582,30.4550278 L167.115617,43.8722252 L167.115617,158.332219 L68.5834191,215.494594 L8.18465924,137.226812 L69.6046582,30.4550278 Z M7.43478261,182.43691 L7.43478261,148.4398 L64.3827487,222.236094 L99.5048814,308.623547 L70.3527193,291.809074 L7.43478261,182.43691 Z M271.427649,291.809074 L242.276168,308.624685 L277.392175,222.239737 L334.565217,148.412478 L334.565217,182.433267 L271.427649,291.809074 Z" id="dodeca" fill="#9A859E" transform="translate(171.000000, 160.500000) rotate(-180.000000) translate(-171.000000, -160.500000) "></path>
            <path d="M269.555075,190.240868 C265.460798,190.240868 261.951419,192.002445 259.319384,194.938408 L243.819625,188.185694 C246.451659,180.552192 247.621453,172.625093 247.621453,164.110802 C247.621453,161.17484 247.329004,158.532473 247.036556,155.890107 L252.885522,155.009318 C255.225108,159.413262 259.904281,162.642821 265.460798,162.642821 C273.356902,162.642821 279.498316,156.183703 279.498316,148.550201 C279.498316,140.916699 273.064454,134.457581 265.460798,134.457581 C258.442039,134.457581 252.885522,139.448718 251.715729,145.907835 L245.574315,146.788624 C243.527177,137.980736 239.725349,129.466445 235.046176,122.126539 L254.347763,108.033919 C256.68735,109.501901 259.319384,110.676286 262.243867,110.676286 C270.139971,110.676286 276.281385,104.217168 276.281385,96.5836658 C276.281385,88.9501634 269.847523,82.491046 262.243867,82.491046 C254.347763,82.491046 248.206349,88.9501634 248.206349,96.5836658 C248.206349,98.051647 248.498797,99.5196282 248.791246,100.694013 L229.489658,115.080229 C224.518038,109.208304 218.376623,103.923572 211.942761,99.8132245 L219.253968,86.014201 C219.838865,86.014201 220.71621,86.3077972 221.593555,86.3077972 C229.489658,86.3077972 235.631073,79.8486798 235.631073,72.2151775 C235.631073,64.5816751 229.19721,58.1225577 221.593555,58.1225577 C213.697451,58.1225577 207.556037,64.5816751 207.556037,72.2151775 C207.556037,76.0319287 209.018278,79.2614873 211.357864,81.9038536 L204.046657,95.702877 C198.197691,93.0605108 192.056277,91.0053371 185.914863,89.8309522 L186.792208,82.1974498 C192.933622,80.7294686 197.612795,75.1511399 197.612795,68.3984263 C197.612795,60.4713277 191.178932,54.3058066 183.575277,54.3058066 C175.971621,54.3058066 169.537759,60.7649239 169.537759,68.3984263 C169.537759,73.9767549 172.75469,78.9678911 177.726311,81.3166611 L176.848966,88.6565672 C175.386724,88.6565672 173.924483,88.6565672 172.462241,88.6565672 C168.367965,88.6565672 164.273689,88.9501634 160.179413,89.5373559 L154.915344,66.3432526 C159.00962,63.7008864 161.641655,59.2969427 161.641655,54.3058066 C161.641655,46.378708 155.207792,40.2131868 147.604137,40.2131868 C139.708033,40.2131868 133.566619,46.6723042 133.566619,54.3058066 C133.566619,61.6457127 139.123136,67.5176376 146.141895,68.3984263 L151.405964,91.5925296 C138.53824,95.4092808 126.840308,102.749187 117.774411,112.437863 L109.878307,105.685149 C110.463203,104.217168 110.755652,102.455591 110.755652,100.694013 C110.755652,92.7669146 104.321789,86.6013935 96.7181337,86.6013935 C89.1144781,86.6013935 82.6806157,93.0605108 82.6806157,100.694013 C82.6806157,108.327516 89.1144781,114.786633 96.7181337,114.786633 C99.3501684,114.786633 101.689755,113.905844 104.029341,112.731459 L111.925445,119.484173 C103.151996,131.521619 97.5954786,146.201431 97.010582,162.055628 L85.6050986,162.349225 C83.5579606,157.064492 78.5863396,153.247741 72.4449254,153.247741 C64.5488215,153.247741 58.4074074,159.706858 58.4074074,167.340361 C58.4074074,174.973863 64.8412698,181.43298 72.4449254,181.43298 C78.5863396,181.43298 83.8504089,177.322633 85.8975469,171.450708 L97.3030303,171.157112 C98.1803752,179.964999 100.227513,188.47929 104.029341,196.406389 L98.7652718,199.048755 C96.1332371,196.699985 92.9163059,195.232004 89.1144781,195.232004 C81.2183742,195.232004 75.0769601,201.691121 75.0769601,209.324624 C75.0769601,217.251722 81.5108225,223.417243 89.1144781,223.417243 C96.7181337,223.417243 103.151996,216.958126 103.151996,209.324624 C103.151996,208.443835 103.151996,207.856643 102.859548,207.26945 L108.123617,204.627084 C111.0481,209.324624 114.265031,213.434971 118.066859,217.251722 L113.972583,221.655666 C112.217893,220.774877 110.463203,220.481281 108.416065,220.481281 C100.519962,220.481281 94.3785474,226.940398 94.3785474,234.573901 C94.3785474,242.500999 100.81241,248.666521 108.416065,248.666521 C116.019721,248.666521 122.453583,242.207403 122.453583,234.573901 C122.453583,232.225131 121.868687,229.876361 120.698894,227.821187 L124.79317,223.417243 C130.057239,227.821187 135.906205,231.344342 142.047619,233.986708 L135.321308,251.896079 C135.321308,251.896079 135.02886,251.896079 135.02886,251.896079 C127.132756,251.896079 120.991342,258.355197 120.991342,265.988699 C120.991342,273.915798 127.425204,280.081319 135.02886,280.081319 C142.632516,280.081319 149.066378,273.622201 149.066378,265.988699 C149.066378,261.584755 147.01924,257.768004 143.802309,255.125638 L150.52862,237.216267 C157.547379,239.271441 164.858586,240.445826 172.75469,240.445826 C176.556518,240.445826 180.650794,240.152229 184.452621,239.565037 L185.329966,243.381788 C181.23569,245.730558 178.603656,250.428098 178.603656,255.419234 C178.603656,263.346333 185.037518,269.511854 192.641174,269.511854 C200.244829,269.511854 206.678692,263.052736 206.678692,255.419234 C206.678692,248.079328 201.122174,242.207403 194.395863,241.326614 L193.518519,237.216267 C200.244829,235.454689 206.678692,232.518727 212.235209,228.995572 L217.20683,238.390652 C215.45214,240.739422 214.282347,243.675384 214.282347,247.198539 C214.282347,255.125638 220.71621,261.291159 228.319865,261.291159 C236.215969,261.291159 242.357383,254.832042 242.357383,247.198539 C242.357383,239.565037 235.923521,233.10592 228.319865,233.10592 C227.150072,233.10592 225.980279,233.399516 225.102934,233.399516 L218.669072,223.71084 C227.734969,216.370934 235.046176,207.26945 240.310245,196.699985 L255.517557,203.452699 C255.517557,203.746295 255.517557,204.039891 255.517557,204.627084 C255.517557,212.554182 261.951419,218.719704 269.555075,218.719704 C277.451178,218.719704 283.592593,212.260586 283.592593,204.627084 C283.592593,196.699985 277.451178,190.240868 269.555075,190.240868 Z" id="virus" fill="#AB24FF"></path>
            <path d="M276.858526,23.6827913 L235.738515,1.60410879e-13 L106.043669,1.60410879e-13 L64.9145828,23.6827913 L0,136.530327 L0,184.433244 L64.9145825,297.280779 L106.041854,321 L235.738515,321 L276.858526,297.280779 L342,184.436887 L342,136.528505 L276.858526,23.6827913 Z M333.810122,137.223852 L273.196496,215.499376 L174.550399,158.331992 L174.550399,43.8729082 L272.177753,30.4538893 L333.810122,137.223852 Z M232.249376,313.539247 L109.532808,313.539247 L72.3005836,221.959457 L170.834823,164.794123 L269.476382,221.960368 L232.249376,313.539247 Z M108.025794,7.46075322 L233.75639,7.46075322 L262.837308,24.2076031 L170.833008,36.8538622 L78.9405649,24.2091971 L108.025794,7.46075322 Z M69.6046582,30.4550278 L167.115617,43.8722252 L167.115617,158.332219 L68.5834191,215.494594 L8.18465924,137.226812 L69.6046582,30.4550278 Z M7.43478261,182.43691 L7.43478261,148.4398 L64.3827487,222.236094 L99.5048814,308.623547 L70.3527193,291.809074 L7.43478261,182.43691 Z M271.427649,291.809074 L242.276168,308.624685 L277.392175,222.239737 L334.565217,148.412478 L334.565217,182.433267 L271.427649,291.809074 Z" id="dodeca" fill="#4A0059"></path>
        </g>
    </g>
</svg>